<!--?xml version="1.0" encoding="utf-8"?-->
<!-- Generator: Adobe Illustrator 22.1.0, SVG Export Plug-In . SVG Version: 6.00 Build 0)  -->
<svg version="1.1" id="_x34_" xmlns="http://www.w3.org/2000/svg" xmlns:xlink="http://www.w3.org/1999/xlink" x="0px" y="0px" viewBox="0 0 691.5 800" style="enable-background:new 0 0 691.5 800;" xml:space="preserve">
<style type="text/css">
	.stblack{fill:#000000;}
	.st0{fill:#FFFFFF;}
</style>
<g>
	<path class="stblack" d="M607,780c-2.6,0-5.2-0.4-7.7-1.2c-0.7,0.1-1.3,0.1-2,0.1c-14.3,0-26-11.7-26-26c0-6.2,2.1-12,6-16.6
		c3.5-10.5,13.5-17.9,24.7-17.9c11.8,0,21.9,7.8,25,19c3.9,4.7,6,10.5,6,16.6C633,768.3,621.3,780,607,780L607,780z"></path>
	<path class="st0" d="M616.3,740.4c-1.2-7.7-7.9-13.6-15.9-13.6c-7.7,0-14.2,5.4-15.8,12.7c-3,2.9-4.8,7-4.8,11.5
		c0,8.9,7.2,16.2,16.2,16.2c1,0,1.9-0.1,2.9-0.3c1.9,0.8,4.1,1.3,6.3,1.3c8.9,0,16.2-7.2,16.2-16.2
		C621.3,747.5,619.3,743.4,616.3,740.4z"></path>
	<path class="stblack" d="M546.9,731.4c-4.4,0-8.7-1-12.6-3c-1.1,0.1-2.1,0.1-3.2,0.1c-20.9,0-37.9-17-37.9-37.9c0-11.5,5.2-22.3,14.1-29.5
		c7.1-10.2,18.6-16.3,31.1-16.3c20.9,0,37.9,17,37.9,37.9c0,4.4-0.8,8.8-2.3,13c0.7,2.4,1,4.9,1,7.4
		C575.2,718.8,562.5,731.4,546.9,731.4L546.9,731.4z"></path>
	<path class="st0" d="M560.1,680.1c0-13.7-11.1-24.9-24.9-24.9c-9,0-16.8,4.8-21.2,11.9c-6.3,4.5-10.4,11.9-10.4,20.2
		c0,13.7,11.1,24.9,24.9,24.9c1.7,0,3.3-0.2,4.9-0.5c2.6,1.9,5.9,3.1,9.4,3.1c8.9,0,16.1-7.2,16.1-16.1c0-2.5-0.6-4.9-1.7-7.1
		C559.1,688.2,560.1,684.2,560.1,680.1z"></path>
	<path class="stblack" d="M674.2,329.5c0-35.6-13.2-68.6-35.2-94c-17.2-23.3-41.3-41.4-69.7-50.9c-6-32.7-20.5-63.1-42.1-88.4
		c-6.8-9-14.4-17.5-22.8-25.3C469.2,38,423.2,20,375.1,20c-33.7,0-66.9,9-95.8,25.9c-24.6,14.4-45.7,34.2-61.7,57.8
		c-7.2-1.1-14.5-1.7-21.8-1.7c-79,0-143.3,64.3-143.3,143.3c0,20.7,4.5,41.1,13,59.8c-30.4,27-48.2,66.1-48.2,107.2
		c0,34.6,12.5,67.9,35.1,93.9c2.5,3.3,5.1,6.6,7.8,9.7c18.9,21.5,43.7,36.8,71.1,44c5.9,18.5,15.5,35.7,28.3,50.4
		c6.5,8.8,14,17,22.4,24.2c25.9,22.1,58.9,34.3,93.1,34.3c22.3,0,44.2-5.2,64-15c17.7,16.9,41.1,26.3,66,26.3
		c21,0,40.9-6.7,57.6-19.3c11.2-8.4,20.4-19.3,27-31.6c5.7,1.5,11.6,2.3,17.6,2.3c37.5,0,68-30.5,68-68c0-0.5,0-1,0-1.4
		c39-12.5,66.7-49.1,66.7-91.3c0-14.2-3.1-28.1-9.1-40.7C659.3,403.4,674.2,367.4,674.2,329.5z"></path>
	<path class="st0" d="M650,320.4c-2.9-61.5-55.5-118.1-123.3-126.2c-0.3-4.3,19.5-10.6,19.5-10.6c-12.8-83-84.5-146.6-171.1-146.6
		c-58.7,0-110.6,29.2-141.9,73.9c2.5,3.3,7.4,10.3,5,14.3c-10.4-3.8-32.1-6.2-42.4-6.2c-69.8,0-126.4,56.6-126.4,126.4
		c0,23.5,13,58.3,24.2,77.1c-4,2.9-18.1-3.6-18.1-3.6c-25.4,23.1-41.3,56.4-41.3,93.5c0,59,40.5,108.6,95.2,122.5
		c4.5,1.1,7.1-12.1,11.8-11.5c8.1,62.9,64,119.6,126.6,119.6c24.8,0,60.3-14.5,79.9-26.8c3.2,4.1-5.6,15.3-1.7,18.7
		c13.9,12.1,32,19.4,51.8,19.4c35.6,0,65.7-23.6,75.6-56c7.8,4.8,16.9,7.5,26.6,7.5c28.2,0,51.1-22.9,51.1-51.1
		c0-5-0.7-9.9-2.1-14.5c38.8-5,68.8-38.1,68.8-78.3c0-7.2-1-14.2-2.8-20.9c0,0-28.6,1.5-33.4-5.6C619.5,413.6,652.6,374.5,650,320.4
		z"></path>
</g>
</svg>
