<!--?xml version="1.0" encoding="utf-8"?-->
<!-- Generator: Adobe Illustrator 22.1.0, SVG Export Plug-In . SVG Version: 6.00 Build 0)  -->
<svg version="1.1" id="_x34_" xmlns="http://www.w3.org/2000/svg" xmlns:xlink="http://www.w3.org/1999/xlink" x="0px" y="0px" viewBox="0 0 800 482.7" style="width: 512px;" xml:space="preserve">
<style type="text/css">
	.stblack{fill:#000000;}
	.st0{fill:#FFFFFF;}
</style>
<g>
	<path class="stblack" d="M452.2,424.8c20.5-41.8,190.6-72.8,247.2-45.5c-56.6-27.3-51.5-100.5,6.4-91.3c-57.9-9.3,1.4-60.5,74.3-81.7
		c-71.5-8-132.7-40.8-89.1-69c-58.1,2-52.3-54.2-27.6-97.7c-61.2,31.1-157.5,45.8-176.5-3.1c-32.8,32.1-86.7,20.9-110.1-24.5
		c-22.1,47.4-88.8,57.2-124.5,18.6c-11.7,40.8-73.6,45.9-153.6,19.6c43.6,51.4,43.6,108-23.4,112.5c61.2,26.6,25.1,66-55.2,84.9
		c81.1,12.2,121.8,38,88.5,69.7c52.2-0.5,49.2,41-1.4,83.2c73.6-20.9,184.4-31.5,205.9,14.9c31.8-21.8,62.9,2,80.7,55.2
		C413.6,425.6,436.6,397.8,452.2,424.8z"></path>
	<path class="st0" d="M394.7,438.1c-15.2-28.5-35.6-44.4-58.2-44.4c-6.4,0-12.7,1.3-19,3.8c-16.2-18.9-47-28.4-91.8-28.4
		c-23.8,0-50.9,2.8-78.2,7.9c11.6-17.3,15.3-33.8,10.3-47.6c-2.6-7-9.1-17.6-25.9-22.7c2.7-8.1,2-15.1,0.3-20.5
		c-5.5-17.4-25.6-31.3-60.1-41.4c28.9-13.2,45.6-29.8,47.3-48.2c0.7-7.9-1.2-17.9-10.5-27.8c16.5-7.4,24.8-18.8,29-28.7
		c7.9-18.8,5.1-42.4-7.4-66.7c19.8,4.5,38,6.7,54.5,6.7c40.3,0,60.8-13.7,71.3-27.8c14.7,10.3,32.4,15.8,51.3,15.8
		c27.2,0,52.5-11.8,69.1-31.3c16.8,20,40.4,31.7,65.5,31.7c14.6,0,28.6-4.1,40.8-11.8c13.7,16.3,37.5,25.1,69,25.1
		c25.9,0,56.4-6,85.1-16.2c-6.6,21.5-8.1,44.2,1.9,61.3c4.3,7.4,12,15.8,25.4,20.4c-2.4,6.7-1.9,12.6-1,16.6
		c5,21.2,33.4,37,67.7,46.7c-33.8,16.5-63.7,39.7-62.3,62.6c0.1,1.9,0.5,4.1,1.2,6.4c-11.5,6.2-19.6,16.9-22.8,30.8
		c-3.1,13.7-0.9,30.1,7.5,45.3c-5.9-0.4-12.1-0.6-18.6-0.6c-59,0-149.5,17.3-184.7,48.9c-4.8-2.9-9.5-3.8-13.3-3.8
		C428.2,400.5,413.6,405,394.7,438.1z"></path>
</g>
</svg>
